<?xml version="1.0" encoding="utf-8"?>
<!-- Generator: Adobe Illustrator 19.1.0, SVG Export Plug-In . SVG Version: 6.00 Build 0)  -->
<svg version="1.1" id="Capa_1" xmlns="http://www.w3.org/2000/svg" xmlns:xlink="http://www.w3.org/1999/xlink" x="0px" y="0px"
	 width="34.5px" height="34.5px" viewBox="226.1 107.5 34.5 34.5" style="enable-background:new 226.1 107.5 34.5 34.5;"
	 xml:space="preserve">
<g>
	<g>
		<path d="M259.3,112.2h-32.1c-0.6,0-1.2,0.5-1.2,1.2V136c0,0.6,0.5,1.2,1.2,1.2h32.1c0.6,0,1.2-0.5,1.2-1.2v-22.7
			C260.5,112.7,260,112.2,259.3,112.2z M258.2,134.9h-29.7v-20.3h29.7V134.9z"/>
		<path d="M231.5,120l11.2,6.9c0.2,0.1,0.4,0.2,0.6,0.2c0.2,0,0.4-0.1,0.6-0.2l11.2-6.9c0.5-0.3,0.7-1.1,0.4-1.6
			c-0.3-0.5-1.1-0.7-1.6-0.4l-10.6,6.5l-10.6-6.5c-0.5-0.3-1.3-0.2-1.6,0.4C230.8,119,231,119.7,231.5,120z"/>
	</g>
</g>
</svg>
