<?xml version="1.0" encoding="utf-8"?>
<!-- Generator: Adobe Illustrator 19.1.0, SVG Export Plug-In . SVG Version: 6.00 Build 0)  -->
<svg version="1.1" id="Capa_1" xmlns="http://www.w3.org/2000/svg" xmlns:xlink="http://www.w3.org/1999/xlink" x="0px" y="0px"
	 width="115.8px" height="75.7px" viewBox="749.2 87.1 115.8 75.7" style="enable-background:new 749.2 87.1 115.8 75.7;"
	 xml:space="preserve">
<style type="text/css">
	.st0{fill:#FFFFFF;}
</style>
<path class="st0" d="M807.1,87.1c-25.6,0-47.6,15.1-57.7,36.8c-0.3,0.7-0.3,1.4,0,2.1c10.1,21.7,32.1,36.8,57.7,36.8
	s47.6-15.1,57.7-36.8c0.3-0.7,0.3-1.4,0-2.1C854.7,102.1,832.6,87.1,807.1,87.1z M807.1,151c-14.4,0-26.1-11.7-26.1-26.1
	c0-14.4,11.7-26.1,26.1-26.1c14.4,0,26.1,11.7,26.1,26.1S821.5,151,807.1,151z M807.1,108.2c9.2,0,16.7,7.5,16.7,16.7
	c0,9.2-7.5,16.7-16.7,16.7s-16.7-7.5-16.7-16.7C790.4,115.7,797.8,108.2,807.1,108.2z"/>
</svg>
