<?xml version="1.0" encoding="utf-8"?>
<!-- Generator: Adobe Illustrator 19.1.0, SVG Export Plug-In . SVG Version: 6.00 Build 0)  -->
<svg version="1.1" id="Capa_1" xmlns="http://www.w3.org/2000/svg" xmlns:xlink="http://www.w3.org/1999/xlink" x="0px" y="0px"
	 width="25.1px" height="25.1px" viewBox="292.6 112.3 25.1 25.1" style="enable-background:new 292.6 112.3 25.1 25.1;"
	 xml:space="preserve">
<g>
	<path id="Facebook" d="M301.8,117.2c0,0.6,0,3.4,0,3.4h-2.5v4.2h2.5v12.5h5.2v-12.5h3.5c0,0,0.3-2,0.5-4.2c-0.5,0-3.9,0-3.9,0
		s0-2.4,0-2.9c0-0.4,0.6-1,1.1-1c0.6,0,1.7,0,2.8,0c0-0.6,0-2.6,0-4.4c-1.5,0-3.1,0-3.8,0C301.6,112.4,301.8,116.6,301.8,117.2z"/>
</g>
</svg>
