<?xml version="1.0" encoding="utf-8"?>
<!-- Generator: Adobe Illustrator 19.1.0, SVG Export Plug-In . SVG Version: 6.00 Build 0)  -->
<svg version="1.1" id="Layer_1" xmlns="http://www.w3.org/2000/svg" xmlns:xlink="http://www.w3.org/1999/xlink" x="0px" y="0px"
	 width="250px" height="60.8px" viewBox="0 0 250 60.8" style="enable-background:new 0 0 250 60.8;" xml:space="preserve">
<style type="text/css">
	.st0{fill:#BBBDBF;}
</style>
<path class="st0" d="M204.8,49.2c1-0.2,1.7-0.5,2.7-1.1c3.4-1.9,4.1-4.5,4.2-8.3c-1,0.8-2.1,1.6-3.4,2.2c-2.1,1-4.4,1.6-6.8,1.6
	c-2.8,0-5.4-0.7-7.9-2.2c-4.9-3-7.7-8.2-7.7-14.1c0-2.9,0.7-5.7,2.1-8.3c1.4-2.6,3.3-4.6,5.8-6.1c2.5-1.5,5.1-2.2,7.9-2.2
	c2.3,0,4.4,0.5,6.4,1.5c1.3,0.6,2.5,1.5,3.7,2.7v-3.4h5.9v24.9c0,4.2-0.3,7.4-1.1,9.6c-2,5.6-6.2,8.2-11.6,9.1L204.8,49.2z
	 M193.2,22.1c-0.9,1.7-1.4,3.5-1.4,5.4c0,6.2,4.3,10.2,10.1,10.2c3.1,0,5.5-1,7.3-2.8c1.8-1.9,2.7-4.3,2.7-7.5
	c0-2.1-0.4-3.9-1.3-5.4c-1.7-3.2-5-5.1-8.5-5.1c-1.9,0-3.6,0.5-5.2,1.4C195.3,19.2,194.1,20.5,193.2,22.1z M229,14.9
	c1-1,2.1-1.8,3.2-2.5c1.9-1.1,4-1.7,6.3-1.7c2.3,0,4.4,0.6,6.2,1.9c1.8,1.3,3.2,3,4,5.1c0.9,2.1,1.3,5.3,1.3,9.4v16.5h-5.9V28.2
	c0-3.5-0.1-5.6-0.4-6.6c-0.4-1.8-1.1-3-2.1-3.8c-0.9-0.8-2.2-1.2-3.9-1.2c-1.9,0-3.6,0.7-5.2,2c-1.6,1.4-2.6,3.1-3.1,5.1
	c-0.3,1.3-0.5,3.9-0.5,7.8v12.1h-5.9V0h5.9V14.9z M106.4,0v14.8c1.1-1,2.2-1.9,3.5-2.5c2.1-1.1,4.3-1.6,6.7-1.6c4.3,0,8,1.7,11.1,5
	c3.1,3.3,4.6,7.3,4.6,11.9c0,9.1-6.9,16.8-15.7,16.8c-4,0-7.4-1.5-10.1-4.2v3.5h-5.9V0H106.4z M124.9,33c0.9-1.7,1.4-3.6,1.4-5.5
	c0-3.9-2-7.6-5.1-9.5c-1.5-1-3.2-1.4-4.9-1.4c-1.8,0-3.5,0.5-5.1,1.5c-1.6,1-2.8,2.2-3.7,3.9c-0.9,1.6-1.3,3.5-1.3,5.6
	c0,3.2,1,5.8,2.9,7.9c2,2.1,4.3,3.1,7.2,3.1c1.8,0,3.5-0.5,5-1.4C122.8,36,124,34.7,124.9,33z M157.1,43.3c-1.8,0.7-3.8,1.1-6,1.1
	c-4.9,0-8.8-1.7-11.7-5.2c-2.8-3.4-4.2-7.3-4.2-11.5c0-4,1.2-7.6,3.5-10.8c3-4,7.1-6.1,12.1-6.1c5.2,0,9.3,2.1,12.4,6.2
	c2.8,3.7,3.3,7.6,3.4,12l-25.4,0c0.3,2.7,1.2,4.9,2.8,6.6c1.8,2,4,3,6.7,3c1.3,0,2.6-0.2,3.8-0.7c3.5-1.4,4.8-3.7,6.6-6.8l5,2.8
	C164,38.1,161.7,41.4,157.1,43.3z M151,16.7c-2.5,0-4.6,0.8-6.4,2.5c-1,0.9-1.9,2.3-2.5,4.2h18.1c-0.4-1.3-0.9-2.3-1.5-3.1
	C156.8,18,153.8,16.7,151,16.7z M175.5,44.4h-6V12.4h6v2.2c0.6-0.6,1.2-1.1,1.8-1.5c1.4-1,2.9-1.5,4.5-1.5c1.8,0,3.3,0.9,4.8,1.7
	l-3,5.1c-0.7-0.3-1.7-0.8-2.4-0.8c-0.9,0-1.8,0.4-2.8,1.3c-0.9,0.8-1.7,2.2-2.2,4.3C175.8,24.7,175.5,44.4,175.5,44.4z M0.1,0.2h2.5
	v19.3l1.2-1.6c1.6-2.1,3.3-3.6,5.3-4.6c1.9-1,4-1.5,6.4-1.5c4.1,0,7.6,1.6,10.5,4.8c2.9,3.2,4.4,7,4.4,11.6c0,4.5-1.5,8.3-4.4,11.5
	c-2.9,3.2-6.4,4.7-10.6,4.7c-2.4,0-4.5-0.5-6.4-1.6c-1.9-1.1-3.6-2.7-5.1-4.9l-1.2-1.8v7.4H0.1V0.2z M21.4,40
	c1.9-1.2,3.5-2.9,4.6-5.1c1.1-2.2,1.7-4.5,1.7-6.9s-0.6-4.7-1.7-6.9c-1.2-2.2-2.7-3.9-4.7-5.1c-1.9-1.2-4-1.9-6.2-1.9
	c-2.3,0-4.4,0.6-6.4,1.8c-2,1.2-3.6,2.9-4.7,4.9c-1.1,2.1-1.6,4.4-1.6,7c0,3.9,1.2,7.2,3.6,9.9c2.4,2.7,5.5,4,9,4
	C17.3,41.8,19.4,41.2,21.4,40z M63.3,35.7c-1,1.9-2.1,3.4-3.3,4.6c-1.4,1.3-2.9,2.3-4.5,3c-1.7,0.7-3.6,1-5.7,1
	c-4.8,0-8.4-1.7-11.1-4.9c-2.7-3.3-4-7.1-4-11.3c0-3.9,1.1-7.4,3.4-10.5c2.9-3.9,6.7-5.8,11.5-5.8c5,0,8.9,2,11.8,6
	c2,2.6,3,5.9,3.2,9.9H37.3l0,0.7c0.1,3.9,1.3,7.2,3.6,9.8c2.3,2.5,5.2,3.8,8.5,3.8c1.6,0,3.2-0.3,4.7-0.9c1.5-0.6,2.8-1.4,3.9-2.4
	c1-0.9,2-2.3,3.1-4.2L63.3,35.7z M59.1,19.1c-1.1-1.4-2.5-2.6-4.2-3.4c-1.7-0.9-3.5-1.3-5.4-1.3c-3.1,0-5.8,1.1-8.1,3.2
	c-1.7,1.6-2.9,4-3.7,7l-0.2,0.9h24.3l-0.2-0.9C61,22.4,60.2,20.5,59.1,19.1z M72.4,12.7v7.2l1.2-1.7c1.5-2.2,3.2-3.7,5-4.8
	c1.8-1,3.7-1.6,5.9-1.6c2.1,0,4,0.6,5.6,1.7c1.7,1.2,2.9,2.7,3.6,4.6c0.8,1.9,1.2,5.1,1.2,9.4v15.9h-2.5V28.8c0-3.7-0.1-6.3-0.5-7.6
	c-0.5-2.3-1.4-4-2.9-5.2c-1.4-1.2-3.3-1.8-5.4-1.8c-2.5,0-4.8,0.9-6.8,2.7c-2,1.8-3.3,4-3.9,6.6c-0.4,1.7-0.6,4.7-0.6,9v11.1h-2.5
	V12.7H72.4z M0,49.5h2c1.2,0,2,0.1,2.4,0.2c0.6,0.2,1.1,0.5,1.4,1c0.4,0.5,0.6,1.1,0.6,1.8c0,0.7-0.2,1.3-0.5,1.8
	c-0.4,0.5-0.9,0.8-1.5,1c-0.5,0.1-1.3,0.2-2.6,0.2H1v5.1H0V49.5z M1,50.6v3.8l1.7,0c0.7,0,1.2-0.1,1.5-0.2c0.3-0.1,0.6-0.4,0.8-0.7
	c0.2-0.3,0.3-0.7,0.3-1c0-0.4-0.1-0.7-0.3-1c-0.2-0.3-0.4-0.5-0.7-0.7c-0.3-0.1-0.8-0.2-1.5-0.2H1z M22.9,49.5h1v4.6h5.2v-4.6h1v11
	h-1v-5.3h-5.2v5.3h-1V49.5z M51.9,49.2c1.6,0,2.9,0.6,3.9,1.7c1,1.1,1.6,2.5,1.6,4.1c0,1.6-0.5,3-1.6,4.1c-1,1.1-2.3,1.7-3.8,1.7
	c-1.5,0-2.8-0.6-3.9-1.7c-1-1.1-1.6-2.5-1.6-4.1c0-1.1,0.2-2,0.7-3c0.5-0.9,1.1-1.6,2-2.1C50.1,49.5,51,49.2,51.9,49.2z M52,50.3
	c-0.8,0-1.5,0.2-2.2,0.6c-0.7,0.4-1.2,1-1.6,1.7c-0.4,0.7-0.6,1.5-0.6,2.4c0,1.3,0.4,2.4,1.3,3.3c0.8,0.9,1.9,1.4,3.1,1.4
	c0.8,0,1.5-0.2,2.2-0.6c0.7-0.4,1.2-1,1.6-1.7c0.4-0.7,0.6-1.5,0.6-2.4c0-0.9-0.2-1.7-0.6-2.4c-0.4-0.7-0.9-1.3-1.6-1.7
	C53.5,50.5,52.8,50.3,52,50.3z M72.9,50.6v-1.1h5.6v1.1h-2.3v10h-1v-10H72.9z M99.3,49.2c1.6,0,2.9,0.6,3.9,1.7
	c1,1.1,1.6,2.5,1.6,4.1c0,1.6-0.5,3-1.6,4.1c-1,1.1-2.3,1.7-3.8,1.7c-1.5,0-2.8-0.6-3.9-1.7c-1-1.1-1.6-2.5-1.6-4.1
	c0-1.1,0.2-2,0.7-3c0.5-0.9,1.1-1.6,2-2.1C97.4,49.5,98.3,49.2,99.3,49.2z M99.3,50.3c-0.8,0-1.5,0.2-2.2,0.6
	c-0.7,0.4-1.2,1-1.6,1.7c-0.4,0.7-0.6,1.5-0.6,2.4c0,1.3,0.4,2.4,1.3,3.3c0.8,0.9,1.9,1.4,3.1,1.4c0.8,0,1.5-0.2,2.2-0.6
	c0.7-0.4,1.2-1,1.6-1.7c0.4-0.7,0.6-1.5,0.6-2.4c0-0.9-0.2-1.7-0.6-2.4c-0.4-0.7-0.9-1.3-1.6-1.7C100.8,50.5,100.1,50.3,99.3,50.3z
	 M131.1,51.4l-0.8,0.8c-0.6-0.6-1.2-1.1-1.9-1.4c-0.7-0.3-1.3-0.5-2-0.5c-0.8,0-1.6,0.2-2.3,0.6c-0.7,0.4-1.3,1-1.7,1.7
	c-0.4,0.7-0.6,1.5-0.6,2.3c0,0.8,0.2,1.6,0.6,2.4c0.4,0.7,1,1.3,1.7,1.8c0.7,0.4,1.5,0.6,2.4,0.6c1.1,0,1.9-0.3,2.7-1
	c0.7-0.6,1.2-1.5,1.3-2.5h-3.3v-1.1h4.4c0,1.7-0.5,3.1-1.4,4.1c-0.9,1-2.2,1.5-3.7,1.5c-1.9,0-3.4-0.7-4.5-2.1
	c-0.9-1.1-1.3-2.3-1.3-3.7c0-1,0.2-2,0.7-2.9c0.5-0.9,1.2-1.6,2-2.1c0.9-0.5,1.8-0.8,2.9-0.8c0.9,0,1.7,0.2,2.5,0.5
	C129.6,50.1,130.4,50.6,131.1,51.4z M148.1,49.5h2c1.1,0,1.9,0,2.3,0.1c0.6,0.2,1.1,0.5,1.5,1c0.4,0.5,0.6,1.1,0.6,1.8
	c0,0.6-0.1,1.1-0.4,1.6c-0.3,0.5-0.6,0.8-1.1,1c-0.5,0.2-1.2,0.3-2,0.4l3.7,5.1h-1.3l-3.7-5.1h-0.6v5.1h-1V49.5z M149.2,50.6v3.8
	l1.8,0c0.7,0,1.2-0.1,1.5-0.2c0.3-0.1,0.6-0.4,0.8-0.7c0.2-0.3,0.3-0.7,0.3-1c0-0.4-0.1-0.7-0.3-1c-0.2-0.3-0.4-0.5-0.7-0.7
	c-0.3-0.1-0.8-0.2-1.5-0.2H149.2z M175.4,49.5l4.8,11h-1.1l-1.6-3.6H173l-1.6,3.6h-1.1l4.9-11H175.4z M175.2,51.8l-1.8,4h3.5
	L175.2,51.8z M196.2,49.5h2c1.2,0,2,0.1,2.4,0.2c0.6,0.2,1.1,0.5,1.4,1c0.4,0.5,0.6,1.1,0.6,1.8c0,0.7-0.2,1.3-0.5,1.8
	c-0.4,0.5-0.9,0.8-1.5,1c-0.5,0.1-1.3,0.2-2.6,0.2h-0.7v5.1h-1V49.5z M197.2,50.6v3.8l1.7,0c0.7,0,1.2-0.1,1.5-0.2
	c0.3-0.1,0.6-0.4,0.8-0.7c0.2-0.3,0.3-0.7,0.3-1c0-0.4-0.1-0.7-0.3-1c-0.2-0.3-0.4-0.5-0.7-0.7c-0.3-0.1-0.8-0.2-1.5-0.2H197.2z
	 M219,49.5h1v4.6h5.2v-4.6h1v11h-1v-5.3H220v5.3h-1V49.5z M242.4,49.5h1.2l2.6,4.5l2.6-4.5h1.2l-3.3,5.8v5.3h-1v-5.3L242.4,49.5z"/>
</svg>
